# xmcd
#
# Track frame offsets: 
#        150
#        18045
#        35538
#        57701
#        79026
#        94318
#        112765
#        127978
#        147862
#        163400
#        182967
#        207454
#        220309
#        237807
#        258450
#        271933
#
# Disc length: 3971 seconds
#
# Revision: 0
# Processed by: cddbd v1.5.2PL0 Copyright (c) Steve Scherf et al.
# Submitted via: ExactAudioCopy v0.99pb3
#
DISCID=e70f8110
DTITLE=Mark Hummel - Back Porch Music
DYEAR=2011
DGENRE=Blues
TTITLE0=Have You Ever Been In Love
TTITLE1=Living With The Blues
TTITLE2=Ease My Mind
TTITLE3=My Little Machine
TTITLE4=Shake Your Boogie
TTITLE5=But I Forgive You
TTITLE6=I Just Keep Loving Her
TTITLE7=Can't Hold Out Much Longer
TTITLE8=Evans Shuffle
TTITLE9=Love In Vain
TTITLE10=She Moves Me
TTITLE11=Let Me Go
TTITLE12=Learned My Lesson (Changed My Ways)
TTITLE13=Worried Life Blues
TTITLE14=Step Back Baby
TTITLE15=See See Rider
EXTD=
EXTT0=
EXTT1=
EXTT2=
EXTT3=
EXTT4=
EXTT5=
EXTT6=
EXTT7=
EXTT8=
EXTT9=
EXTT10=
EXTT11=
EXTT12=
EXTT13=
EXTT14=
EXTT15=
PLAYORDER=
